<svg width="194" height="28" viewBox="0 0 194 28" fill="none" xmlns="http://www.w3.org/2000/svg">
<path d="M2.77006 20V19.5342L4.64213 19.2969V8.96973H4.19389C2.71146 8.96973 1.69779 9.02832 1.15287 9.14551L0.915566 10.9824H0.326699V8.21387H10.6978V10.9824H10.1001L9.86283 9.14551C9.68705 9.10449 9.30326 9.06787 8.71146 9.03564C8.11967 9.00342 7.47221 8.9873 6.76908 8.9873H6.33842V19.2969L8.21049 19.5342V20H2.77006ZM11.5152 20V19.5342L13.0269 19.2969V8.9082L11.5152 8.67969V8.21387H16.2349V8.67969L14.7232 8.9082V13.54H20.2691V8.9082L18.7574 8.67969V8.21387H23.4683V8.67969L21.9566 8.9082V19.2969L23.4683 19.5342V20H18.7574V19.5342L20.2691 19.2969V14.3311H14.7232V19.2969L16.2349 19.5342V20H11.5152ZM24.5142 19.5342L26.0259 19.2969V8.9082L24.5142 8.67969V8.21387H33.356V11.0352H32.7759L32.4947 9.12793C31.8384 9.0459 30.8892 9.00488 29.647 9.00488H27.7222V13.6104H30.9038L31.1763 12.2041H31.7388V15.8252H31.1763L30.9038 14.4014H27.7222V19.209H30.0425C31.5542 19.209 32.5445 19.1621 33.0132 19.0684L33.5142 16.8887H34.0943L33.9273 20H24.5142V19.5342ZM40.0093 19.5342L41.521 19.2969V8.9082L40.0093 8.67969V8.21387H48.8511V11.0352H48.271L47.9898 9.12793C47.3335 9.0459 46.3843 9.00488 45.1421 9.00488H43.2173V13.6104H46.399L46.6714 12.2041H47.2339V15.8252H46.6714L46.399 14.4014H43.2173V19.209H45.5376C47.0494 19.209 48.0396 19.1621 48.5083 19.0684L49.0093 16.8887H49.5894L49.4224 20H40.0093V19.5342ZM57.2886 20.1758C55.3785 20.1758 53.8902 19.6558 52.8238 18.6157C51.7574 17.5757 51.2242 16.1182 51.2242 14.2432C51.2242 12.2158 51.7369 10.6821 52.7622 9.64209C53.7876 8.60205 55.3081 8.08203 57.3238 8.08203C58.5484 8.08203 59.8638 8.23145 61.2701 8.53027L61.3228 11.1055H60.7427L60.479 9.57617C60.0689 9.32422 59.5928 9.12939 59.0508 8.9917C58.5088 8.854 57.9566 8.78516 57.3941 8.78516C55.8882 8.78516 54.7896 9.22754 54.0982 10.1123C53.4068 10.9971 53.0611 12.3682 53.0611 14.2256C53.0611 15.9365 53.4229 17.2432 54.1465 18.1455C54.8702 19.0479 55.9234 19.499 57.3062 19.499C57.9742 19.499 58.604 19.4185 59.1958 19.2573C59.7876 19.0962 60.2564 18.8809 60.6021 18.6113L60.9273 16.8535H61.4986L61.4458 19.6221C60.1568 19.9912 58.771 20.1758 57.2886 20.1758ZM65.0669 14.0938C65.0669 15.9863 65.3833 17.3574 66.0162 18.207C66.649 19.0566 67.6392 19.4814 68.9869 19.4814C70.3287 19.4814 71.3189 19.0566 71.9576 18.207C72.5962 17.3574 72.9156 15.9863 72.9156 14.0938C72.9156 12.2129 72.5977 10.8579 71.962 10.0288C71.3262 9.19971 70.3345 8.78516 68.9869 8.78516C67.6333 8.78516 66.6416 9.19971 66.0118 10.0288C65.3819 10.8579 65.0669 12.2129 65.0669 14.0938ZM63.23 14.0938C63.23 10.0859 65.149 8.08203 68.9869 8.08203C70.8853 8.08203 72.3208 8.59033 73.2935 9.60693C74.2662 10.6235 74.7525 12.1191 74.7525 14.0938C74.7525 16.0977 74.2603 17.6123 73.2759 18.6377C72.2915 19.6631 70.8619 20.1758 68.9869 20.1758C67.1177 20.1758 65.691 19.6646 64.7066 18.6421C63.7222 17.6196 63.23 16.1035 63.23 14.0938ZM85.6421 8.9082L84.0601 8.67969V8.21387H88.0767V8.67969L86.565 8.9082V20H85.7124L78.4439 9.40039V19.2969L80.0259 19.5342V20H76.0093V19.5342L77.521 19.2969V8.9082L76.0093 8.67969V8.21387H79.5777L85.6421 16.9414V8.9082ZM91.065 14.0938C91.065 15.9863 91.3814 17.3574 92.0142 18.207C92.647 19.0566 93.6372 19.4814 94.9849 19.4814C96.3267 19.4814 97.3169 19.0566 97.9556 18.207C98.5943 17.3574 98.9136 15.9863 98.9136 14.0938C98.9136 12.2129 98.5957 10.8579 97.96 10.0288C97.3243 9.19971 96.3326 8.78516 94.9849 8.78516C93.6314 8.78516 92.6397 9.19971 92.0098 10.0288C91.3799 10.8579 91.065 12.2129 91.065 14.0938ZM89.2281 14.0938C89.2281 10.0859 91.147 8.08203 94.9849 8.08203C96.8833 8.08203 98.3189 8.59033 99.2915 9.60693C100.264 10.6235 100.751 12.1191 100.751 14.0938C100.751 16.0977 100.258 17.6123 99.274 18.6377C98.2896 19.6631 96.8599 20.1758 94.9849 20.1758C93.1158 20.1758 91.689 19.6646 90.7046 18.6421C89.7203 17.6196 89.2281 16.1035 89.2281 14.0938ZM109.065 20H108.757L104.442 9.86621V19.2969L106.024 19.5342V20H102.007V19.5342L103.519 19.2969V8.9082L102.007 8.67969V8.21387H105.576L109.408 17.1787L113.591 8.21387H116.966V8.67969L115.455 8.9082V19.2969L116.966 19.5342V20H112.185V19.5342L113.767 19.2969V9.86621L109.065 20ZM121.343 19.2969L122.855 19.5342V20H118.144V19.5342L119.656 19.2969V8.9082L118.144 8.67969V8.21387H122.855V8.67969L121.343 8.9082V19.2969ZM130.291 20.1758C128.38 20.1758 126.892 19.6558 125.826 18.6157C124.759 17.5757 124.226 16.1182 124.226 14.2432C124.226 12.2158 124.739 10.6821 125.764 9.64209C126.79 8.60205 128.31 8.08203 130.326 8.08203C131.55 8.08203 132.866 8.23145 134.272 8.53027L134.325 11.1055H133.745L133.481 9.57617C133.071 9.32422 132.595 9.12939 132.053 8.9917C131.511 8.854 130.959 8.78516 130.396 8.78516C128.89 8.78516 127.792 9.22754 127.1 10.1123C126.409 10.9971 126.063 12.3682 126.063 14.2256C126.063 15.9365 126.425 17.2432 127.148 18.1455C127.872 19.0479 128.925 19.499 130.308 19.499C130.976 19.499 131.606 19.4185 132.198 19.2573C132.79 19.0962 133.258 18.8809 133.604 18.6113L133.929 16.8535H134.501L134.448 19.6221C133.159 19.9912 131.773 20.1758 130.291 20.1758ZM142.437 20V19.5342L144.309 19.2969V8.96973H143.861C142.378 8.96973 141.365 9.02832 140.82 9.14551L140.583 10.9824H139.994V8.21387H150.365V10.9824H149.767L149.53 9.14551C149.354 9.10449 148.97 9.06787 148.378 9.03564C147.787 9.00342 147.139 8.9873 146.436 8.9873H146.005V19.2969L147.877 19.5342V20H142.437ZM154.513 19.2969L156.025 19.5342V20H151.314V19.5342L152.826 19.2969V8.9082L151.314 8.67969V8.21387H156.025V8.67969L154.513 8.9082V19.2969ZM164.234 20H163.926L159.611 9.86621V19.2969L161.193 19.5342V20H157.176V19.5342L158.688 19.2969V8.9082L157.176 8.67969V8.21387H160.745L164.577 17.1787L168.76 8.21387H172.135V8.67969L170.624 8.9082V19.2969L172.135 19.5342V20H167.354V19.5342L168.936 19.2969V9.86621L164.234 20ZM173.181 19.5342L174.693 19.2969V8.9082L173.181 8.67969V8.21387H182.023V11.0352H181.443L181.162 9.12793C180.505 9.0459 179.556 9.00488 178.314 9.00488H176.389V13.6104H179.571L179.843 12.2041H180.406V15.8252H179.843L179.571 14.4014H176.389V19.209H178.71C180.221 19.209 181.211 19.1621 181.68 19.0684L182.181 16.8887H182.761L182.594 20H173.181V19.5342ZM184.879 16.8271H185.451L185.758 18.418C185.975 18.6934 186.349 18.9365 186.879 19.1475C187.409 19.3584 187.932 19.4639 188.448 19.4639C189.268 19.4639 189.908 19.2544 190.368 18.8354C190.828 18.4165 191.058 17.8379 191.058 17.0996C191.058 16.6777 190.969 16.3291 190.79 16.0537C190.611 15.7783 190.377 15.5454 190.087 15.355C189.797 15.1646 189.467 15.0034 189.098 14.8716C188.729 14.7397 188.35 14.6064 187.96 14.4717C187.57 14.3369 187.191 14.1875 186.822 14.0234C186.453 13.8594 186.123 13.6514 185.833 13.3994C185.543 13.1475 185.309 12.8354 185.13 12.4634C184.951 12.0913 184.862 11.6328 184.862 11.0879C184.862 10.1504 185.213 9.41504 185.917 8.88184C186.62 8.34863 187.595 8.08203 188.843 8.08203C189.793 8.08203 190.824 8.20801 191.937 8.45996V10.9121H191.366L191.058 9.4707C190.46 9.03711 189.722 8.82031 188.843 8.82031C188.058 8.82031 187.444 8.97998 187.002 9.29932C186.56 9.61865 186.338 10.0596 186.338 10.6221C186.338 11.0029 186.428 11.3193 186.606 11.5713C186.785 11.8232 187.02 12.0386 187.31 12.2173C187.6 12.396 187.931 12.5498 188.303 12.6787C188.675 12.8076 189.056 12.9409 189.445 13.0786C189.835 13.2163 190.216 13.3716 190.588 13.5444C190.96 13.7173 191.291 13.937 191.581 14.2036C191.871 14.4702 192.106 14.7954 192.284 15.1792C192.463 15.563 192.552 16.0361 192.552 16.5986C192.552 17.7354 192.204 18.6157 191.506 19.2397C190.809 19.8638 189.804 20.1758 188.492 20.1758C187.859 20.1758 187.223 20.1201 186.585 20.0088C185.946 19.8975 185.377 19.7451 184.879 19.5518V16.8271Z" fill="#191B23"/>
</svg>
